<?xml version="1.0" encoding="UTF-8"?>
<!DOCTYPE svg PUBLIC "-//W3C//DTD SVG 1.1//EN" "http://www.w3.org/Graphics/SVG/1.1/DTD/svg11.dtd">
<!-- Creator: CorelDRAW 2017 -->
<svg xmlns="http://www.w3.org/2000/svg" xml:space="preserve" width="100px" height="97px" version="1.1" style="shape-rendering:geometricPrecision; text-rendering:geometricPrecision; image-rendering:optimizeQuality; fill-rule:evenodd; clip-rule:evenodd"
viewBox="0 0 28.869 28.113"
 xmlns:xlink="http://www.w3.org/1999/xlink">
 <defs>
  <style type="text/css">
   <![CDATA[
    .fil1 {fill:none}
    .fil0 {fill:#E31E24}
   ]]>
  </style>
 </defs>
 <g id="Слой_x0020_1">
  <metadata id="CorelCorpID_0Corel-Layer"/>
  <g id="_2275108590928">
   <path class="fil0" d="M16.774 7.285c0,0.353 0.03,0.711 0.224,0.997 0.371,0.543 1.18,0.822 1.812,0.836 -0.11,0.165 -0.199,0.324 -0.315,0.499 -0.627,0.939 -1.577,2.13 -2.422,2.873 -2.033,1.791 -3.926,2.932 -6.548,3.788 -1.036,0.339 -2.276,0.588 -3.447,0.678l-0.76 0.054c-0.646,0.035 -1.021,-0.053 -1.512,0.168 -1.813,0.814 -1.781,3.4 0.122,4.073 0.706,0.249 2.314,0.075 3.121,-0.015 4.103,-0.462 7.709,-2.024 10.829,-4.548 0.649,-0.526 1.225,-1.067 1.811,-1.651 0.133,-0.133 0.332,-0.298 0.401,-0.47 0.158,-0.397 -0.174,-0.511 -0.465,-0.511 -0.13,0 -1.428,1.339 -1.695,1.564l-1.098 0.888c-0.505,0.395 -1.034,0.73 -1.576,1.072 -3.195,2.016 -6.846,2.994 -10.702,2.994 -0.615,0 -1.273,-0.609 -1.273,-1.222 0,-1.634 1.182,-1.538 2.496,-1.577 1.075,-0.032 2.276,-0.289 3.278,-0.541 1.926,-0.484 3.649,-1.29 5.275,-2.362 0.373,-0.246 0.723,-0.516 1.091,-0.793 1.437,-1.083 2.643,-2.448 3.665,-3.922 1.081,-1.561 1.021,-1.504 -0.459,-1.874 -0.507,-0.127 -1.09,-0.189 -1.09,-0.846 0,-0.448 0.6,-0.854 0.858,-1.178l4.052 -4.248c0.279,-0.255 0.645,-0.262 0.94,-0.067 0.342,0.228 0.428,0.911 0.537,1.296l1.116 3.772c0.176,0.591 0.542,1.561 0.542,2.157 0,0.297 -0.319,0.611 -0.611,0.611 -0.262,0 -0.744,-0.138 -0.978,-0.193 -1.341,-0.316 -1.097,-0.42 -1.705,0.666l-0.932 1.512c-0.212,0.298 -1.018,1.23 -1.018,1.528 0,0.263 0.313,0.716 0.872,0.007 0.564,-0.713 1.048,-1.466 1.531,-2.237 0.638,-1.018 0.161,-0.911 1.497,-0.601 0.386,0.089 0.676,0.153 1.059,0.051 0.609,-0.162 1.1,-0.769 1.1,-1.497 0,-0.344 -0.181,-0.793 -0.273,-1.102 -0.298,-1 -1.49,-5.32 -1.798,-6.043 -0.251,-0.589 -0.824,-0.849 -1.442,-0.849 -0.781,0 -1.303,0.773 -1.796,1.26l-0.738 0.789c-0.138,0.139 -0.247,0.24 -0.382,0.381 -0.152,0.158 -0.214,0.27 -0.381,0.434l-1.883 1.987c-0.374,0.388 -0.93,0.765 -0.93,1.412z"/>
   <path class="fil0" d="M22.171 14.973c0,-0.392 0.438,-0.764 0.865,-0.764 0.47,0 0.866,0.342 0.866,0.815l0 11.303 -1.731 0 0 -11.354zm-0.815 0.204l0 11.507c0,0.246 0.161,0.407 0.407,0.407l2.648 0c0.165,0 0.305,-0.221 0.305,-0.407l0 -11.66c0,-0.433 -0.283,-0.953 -0.522,-1.157 -1.222,-1.042 -2.838,-0.169 -2.838,1.31z"/>
   <path class="fil0" d="M17.792 19.097c0,-0.427 0.372,-0.865 0.764,-0.865 0.384,0 0.49,-0.019 0.804,0.315 0.154,0.164 0.214,0.35 0.214,0.652l0 7.128 -1.782 0 0 -7.23zm-0.815 0.357l0 7.077c0,0.303 0.098,0.56 0.408,0.56l2.647 0c0.123,0 0.306,-0.183 0.306,-0.306l0 -7.79c0,-1.304 -1.685,-2.045 -2.662,-1.236 -0.522,0.433 -0.699,0.889 -0.699,1.695z"/>
   <path class="fil0" d="M13.413 21.948c0,-1.399 1.782,-1.276 1.782,-0.152l0 4.531 -1.782 0 0 -4.379zm-0.764 -0.305l0 5.142c0,0.123 0.183,0.306 0.306,0.306l2.648 0c0.303,0 0.407,-0.206 0.407,-0.509l0 -4.634c0,-1.644 -1.721,-2.355 -2.814,-1.387 -0.238,0.211 -0.547,0.66 -0.547,1.082z"/>
   <path class="fil0" d="M8.271 23.069l0 3.615c0,0.246 0.161,0.407 0.407,0.407l2.648 0c0.165,0 0.305,-0.221 0.305,-0.407l0 -2.903c0,-0.528 -0.815,-0.618 -0.815,0.153l0 2.393 -1.731 0 0 -3.36c0,-0.483 0.407,-0.824 0.825,-0.853 0.614,-0.043 0.695,0.547 1.11,0.547 0.234,0 0.368,-0.143 0.378,-0.364 0.018,-0.395 -0.782,-0.96 -1.294,-0.96 -0.598,0 -0.929,0.068 -1.389,0.546 -0.272,0.284 -0.444,0.65 -0.444,1.186z"/>
   <path class="fil0" d="M4.707 24.392c0,-0.461 0.423,-0.865 0.865,-0.865 0.571,0 0.917,0.432 0.917,1.018l0 1.782 -1.782 0 0 -1.935zm-0.815 0.255l0 1.986c0,0.246 0.144,0.458 0.407,0.458l2.648 0c0.122,0 0.305,-0.183 0.305,-0.306l0 -2.545c0,-0.702 -0.77,-1.477 -1.476,-1.477 -0.662,0 -0.991,0.061 -1.466,0.571 -0.264,0.284 -0.418,0.773 -0.418,1.313z"/>
  </g>
  <rect class="fil1" width="28.869" height="28.113"/>
 </g>
</svg>
