<?xml version="1.0" encoding="UTF-8"?>
<!DOCTYPE svg PUBLIC "-//W3C//DTD SVG 1.1//EN" "http://www.w3.org/Graphics/SVG/1.1/DTD/svg11.dtd">
<!-- Creator: CorelDRAW 2017 -->
<svg xmlns="http://www.w3.org/2000/svg" xml:space="preserve" width="100px" height="97px" version="1.1" style="shape-rendering:geometricPrecision; text-rendering:geometricPrecision; image-rendering:optimizeQuality; fill-rule:evenodd; clip-rule:evenodd"
viewBox="0 0 87.567 85.272"
 xmlns:xlink="http://www.w3.org/1999/xlink">
 <defs>
  <style type="text/css">
   <![CDATA[
    .fil1 {fill:none}
    .fil0 {fill:#E31E24}
   ]]>
  </style>
 </defs>
 <g id="Слой_x0020_1">
  <metadata id="CorelCorpID_0Corel-Layer"/>
  <g id="_2275108595120">
   <path class="fil0" d="M41.467 55.918l0 21.621 -5.251 0 0 -31.351 15.135 0 0 31.351 -5.251 0 0 -21.621c0,-2.667 -4.633,-2.667 -4.633,0zm1.508 -52.818l1.684 0c2.009,0.175 3.943,0.982 5.659,2.423 1.103,0.927 1.937,1.921 2.577,3.291 2.337,5 -0.171,8.479 -0.463,9.575 2.103,-0.49 3.05,-1.427 4.363,-2.741 1.727,-1.727 7.403,-7.722 9.075,-8.685 2.541,-1.461 6.455,-0.828 8.378,1.348 0.447,0.506 1.005,1.281 1.288,1.955 1.162,2.768 0.678,5.182 -1.082,7.443 -0.758,0.972 -14.652,14.7 -16.269,16.317 -1.949,1.949 -1.703,1.056 -1.893,4.749 -0.108,2.101 -0.313,4.107 -0.308,6.178l0 32.741c0,1.156 0.403,4.478 -2.008,4.478l-20.386 0c-0.872,0 -1.656,-0.788 -1.885,-1.511 -0.292,-0.922 -0.136,-33.006 -0.121,-35.864l-0.648 -9.081c-0.286,-0.69 -13.198,-13.334 -14.681,-14.817 -1.848,-1.848 -5.251,-4.423 -4.823,-8.133 0.218,-1.895 0.697,-3.19 1.96,-4.536 1.966,-2.093 5.779,-2.72 8.304,-1.267 0.841,0.484 1.288,0.895 1.972,1.581 1.219,1.224 2.33,2.33 3.552,3.552 2.129,2.129 5.403,6.084 7.915,6.293 -0.324,-1.21 -1.39,-1.48 -1.39,-5.868 0,-3.429 2.613,-7.116 5.715,-8.494 1.164,-0.517 2.345,-0.826 3.515,-0.927zm-26.836 10.193c0,-1.352 0.661,-2.175 1.938,-2.392 1.282,-0.218 2.07,0.762 2.734,1.427 1.398,1.401 7.653,7.811 8.606,8.536 1.534,1.165 3.65,2.313 6.335,2.313l16.217 0c4.641,0 7.708,-3.77 10.463,-6.525 1.453,-1.453 2.794,-2.793 4.247,-4.247 0.663,-0.664 1.37,-1.577 2.569,-1.533 1.35,0.049 2.18,1.097 2.18,2.421 0,1.25 -1.843,2.692 -2.587,3.436l-15.212 15.212c-2.886,2.886 -1.296,2.011 -2.059,7.054 -0.085,0.563 -0.06,0.911 -0.052,1.491 0.007,0.576 0.119,1.069 -0.476,1.069l-14.981 0c0,-1.131 -0.073,-1.885 -0.146,-2.788 -0.04,-0.499 0.025,-1.011 -0.031,-1.514 -0.434,-3.923 0.268,-3.097 -2.101,-5.466l-15.057 -15.058c-0.745,-0.744 -2.587,-2.186 -2.587,-3.436zm27.644 5.251c-4.379,0 -7.365,-5.591 -3.77,-9.176 3.66,-3.652 9.133,-0.624 9.133,3.77 0,2.873 -2.416,5.406 -5.363,5.406z"/>
   <path class="fil0" d="M9.035 71.053c0,-4.576 6.364,-8.001 10.467,-3.827 2.341,2.381 1.733,6.318 1.733,10.313l-12.2 0 0 -6.486zm-4.788 2.548l0 -1.793c0.055,-1.663 0.294,-3.256 0.977,-4.72 1.107,-2.372 1.486,-2.207 2.421,-3.603 -1.545,-1.034 -3.398,-3.894 -3.398,-6.486l0 -1.081c0,-2.071 1.292,-4.73 2.669,-5.98l1.22 -0.942c0.458,-0.313 0.854,-0.576 1.361,-0.801 3.931,-1.743 8.562,-0.508 11.031,3.025 0.326,0.467 0.568,0.821 0.814,1.348 1.516,3.246 0.881,6.514 -1.033,9.373 0.439,0.294 0.823,0.533 1.301,0.861 1.058,0.728 2.393,2.398 3.019,3.468 1.847,3.16 1.394,9.343 1.394,13.586 0,1.147 -0.91,2.316 -2.008,2.316l-17.297 0c-2.534,0 -2.317,-2.581 -2.317,-3.86 0.001,-1.582 -0.114,-3.167 -0.154,-4.711zm4.633 -17.22c0,-0.36 0.272,-1.448 0.414,-1.748 1.16,-2.456 4.585,-3.536 6.888,-1.229 1.329,1.33 1.68,2.947 0.934,4.727 -1.776,4.239 -8.236,2.785 -8.236,-1.75z"/>
   <path class="fil0" d="M66.331 71.516c0,-5.469 6.614,-8.149 10.234,-4.52 0.993,0.996 1.967,2.153 1.967,4.057l0 6.486 -12.201 0 0 -6.023zm16.989 0.821l0 0.131c-0.004,2.114 -0.158,3.791 -0.155,5.998 0.002,1.32 0.137,1.773 -0.404,2.685 -0.354,0.597 -1.025,1.021 -1.912,1.021l-17.298 0c-1.097,0 -2.007,-1.169 -2.007,-2.316l0 -6.332c0,-6.022 1.346,-8.658 5.714,-11.583 -1.43,-2.136 -1.853,-3.213 -1.853,-6.023 0,-1.765 0.76,-3.495 1.697,-4.789 0.709,-0.979 1.226,-1.475 2.191,-2.133 4.725,-3.22 10.959,-1.251 13.206,3.573 0.787,1.692 0.82,2.549 0.821,4.344l0 0.086c0,2.557 -1.88,5.47 -3.398,6.486 0.937,1.4 1.422,1.387 2.469,3.709 0.697,1.545 0.924,2.93 0.929,5.143zm-13.282 -15.956c0,-3.351 4.442,-5.89 7.326,-3.001 1.291,1.292 1.65,3.035 0.911,4.752 -1.815,4.221 -8.237,2.808 -8.237,-1.751z"/>
   <path class="fil0" d="M5.483 37.385c0,1.655 1.542,2.471 2.316,2.471 0.346,0 5.64,-1.21 6.295,-1.735 2.166,-1.735 0.31,-4.288 -1.353,-4.288 -0.346,0 -5.64,1.211 -6.295,1.736 -0.472,0.378 -0.963,1.026 -0.963,1.816z"/>
   <path class="fil0" d="M72.509 36.15c0,2.45 2.558,2.57 4.88,3.151 0.404,0.101 2.017,0.555 2.224,0.555 1.946,0 3.484,-2.438 1.67,-4.141 -0.592,-0.555 -1.113,-0.588 -1.979,-0.801l-4.324 -1.081c-1.206,0 -2.471,1.062 -2.471,2.317z"/>
   <path class="fil0" d="M74.208 25.494c0,1.377 0.461,2.411 1.988,2.65 1.142,0.179 1.875,-0.494 2.798,-0.953 0.814,-0.404 3.299,-1.481 3.805,-2.218 1.358,-1.976 -0.32,-3.804 -1.796,-3.804 -0.905,0 -4.788,2.067 -5.691,2.649 -0.473,0.304 -1.104,0.955 -1.104,1.676z"/>
   <path class="fil0" d="M4.247 23.486c0,1.466 1.063,1.968 1.69,2.325 1.116,0.635 4.262,2.517 5.434,2.333 0.722,-0.113 0.935,-0.236 1.342,-0.671 0.685,-0.732 0.646,-1.115 0.646,-1.979 0,-1.416 -1.781,-2.051 -2.831,-2.574 -0.825,-0.411 -2.949,-1.751 -3.81,-1.751 -1.31,0 -2.471,1.064 -2.471,2.317z"/>
  </g>
  <rect class="fil1" width="87.567" height="85.272"/>
 </g>
</svg>
