<?xml version="1.0" encoding="UTF-8"?>
<!DOCTYPE svg PUBLIC "-//W3C//DTD SVG 1.1//EN" "http://www.w3.org/Graphics/SVG/1.1/DTD/svg11.dtd">
<!-- Creator: CorelDRAW 2017 -->
<svg xmlns="http://www.w3.org/2000/svg" xml:space="preserve" width="100px" height="97px" version="1.1" style="shape-rendering:geometricPrecision; text-rendering:geometricPrecision; image-rendering:optimizeQuality; fill-rule:evenodd; clip-rule:evenodd"
viewBox="0 0 86.137 83.88"
 xmlns:xlink="http://www.w3.org/1999/xlink">
 <defs>
  <style type="text/css">
   <![CDATA[
    .fil1 {fill:none}
    .fil0 {fill:#E31E24}
   ]]>
  </style>
 </defs>
 <g id="Слой_x0020_1">
  <metadata id="CorelCorpID_0Corel-Layer"/>
  <g id="_2275108573232">
   <path class="fil0" d="M28.176 30.936l-0.93 0c0.032,-1.446 0.807,-3.182 0.93,-4.65 0.357,0.239 0.574,0.461 0.864,0.84 0.665,0.867 1.719,1.876 2.39,2.88 -0.791,0.184 -1.781,0.93 -3.254,0.93zm-3.565 -0.62c-0.849,-0.071 -2.731,-1.369 -2.945,-2.17 1.603,-0.428 4.133,-3.837 4.185,-3.875 -0.018,0.783 -0.447,2.191 -0.608,2.957 -0.175,0.839 -0.614,2.284 -0.632,3.088zm5.889 -5.735l4.65 0c-0.342,0.713 -0.328,1.494 -1.035,2.685 -0.316,0.533 -0.367,0.326 -0.515,0.88l-0.31 0c-0.172,-0.644 -2.29,-2.621 -2.79,-3.565zm-4.649 -0.62l0.046 0.046c-0.003,-0.003 -0.062,-0.031 -0.046,-0.046zm7.284 -5.89c0.616,0.451 1.363,1.807 1.651,2.689 0.144,0.442 0.202,0.848 0.364,1.186l-4.96 0 2.945 -3.875zm-5.889 -2.48c1.628,0 2.667,0.218 3.719,0.775 -0.307,0.459 -2.797,4.118 -3.409,4.34 -0.358,-0.746 0.313,-3.72 -0.31,-5.115zm-12.245 -3.409c0.988,0 1.569,0.31 2.635,0.31 0.042,-0.505 0.205,-1.022 0.364,-1.497 0.207,-0.617 0.439,-0.902 0.566,-1.448 5.407,1.259 9.046,9.457 3.528,14.997 -2.64,2.65 -6.902,3.273 -10.249,1.643 -0.685,-0.334 -2.068,-1.292 -2.515,-1.824 -6.121,-7.295 -0.206,-15.281 6.446,-15.281 -0.069,0.834 -0.775,1.659 -0.775,3.1zm-10.849 5.424c0,4.346 1.677,7.621 4.515,9.744 1.417,1.06 2.525,1.616 4.533,2.132 3.039,0.779 4.646,-0.067 5.986,-0.096 0.19,0.71 0.936,1.178 1.431,1.669 2.669,2.646 7.38,3.407 11.123,1.74 0.771,-0.342 1.751,-0.922 2.364,-1.51 1.275,-1.222 1.978,-1.764 2.857,-3.654 3.142,-6.759 -1.851,-14.023 -8.033,-14.652 -5.064,-0.516 -0.494,1.269 -5.053,-3.316 -0.63,-0.633 -0.847,-0.834 -1.619,-1.327 -0.523,-0.334 -1.304,-0.903 -1.985,-0.959 0.633,-0.946 2.607,-2.34 3.875,-2.635 -0.238,-0.495 -0.804,-1.94 -0.93,-2.48 -1.598,0.372 -4.257,2.248 -5.137,3.388 -1.065,1.381 -0.731,0.591 -3.537,0.803 -5.365,0.404 -10.39,5.552 -10.39,11.153z"/>
   <path class="fil0" d="M30.345 55.734c0,1.86 2.062,0.858 3.883,2.162 2.021,1.446 0.725,4.193 -2.953,4.193 -0.54,0 -2.256,-0.559 -2.47,1.095 -0.159,1.239 -0.029,1.353 -0.386,3.488 -1.164,6.961 -1.018,4.742 -1.018,12.311l-7.905 0c0,-0.699 -0.199,-1.671 -0.309,-2.326l-0.834 -4.591 -3.609 -7.24c-0.642,-1.312 -0.625,-1.342 -2.068,-1.342 -1.518,0 -0.778,2.659 -0.806,2.91 -0.048,0.421 -0.4,1.176 -0.699,1.474 -0.962,0.956 -2.596,0.932 -3.574,0.075 -0.296,-0.26 -0.81,-1.213 -0.81,-1.669 0,-3.004 2.48,-1.682 2.48,-4.185 0,-0.403 -0.78,-0.976 -0.997,-1.646 -0.485,-1.498 0.209,-2.952 1.782,-3.316 1.013,-0.234 1.454,0.279 2.225,0.079 1.636,-0.425 0.669,-2.616 1.263,-4.173 0.977,-2.564 4.034,-3.251 6.298,-1.36 1.1,0.919 1.254,0.186 2.603,0.186 2.052,0 2.384,2.968 4.236,-0.103l0.266 -0.354c1.259,-1.306 4.332,-1.292 4.332,2.007 0,0.989 -0.93,1.337 -0.93,2.325zm-19.683 -1.86l0 0.465c-2.94,0 -5.27,2.477 -5.27,5.425 0,0.986 0.446,1.579 0.62,2.325 -2.103,1.408 -2.669,5.283 -0.431,7.56 3.092,3.145 7.561,0.997 8.025,-0.741l0.31 0c0.159,0.683 0.982,2.125 1.344,2.842 0.68,1.348 0.674,1.822 0.937,3.402 0.215,1.289 0.426,2.555 0.62,3.72 0.213,1.28 0.167,2.746 1.594,2.746l10.385 0c1.605,0 1.395,-1.806 1.394,-3.41 -0.004,-6.769 -0.142,-5.02 0.909,-11.336 0.111,-0.673 0.317,-1.505 0.331,-2.148 1.91,0 2.86,-0.263 4.406,-1.329 0.908,-0.627 1.72,-1.766 1.957,-3.005 0.602,-3.133 -2.433,-5.452 -4.038,-5.586 0.677,-2.903 -0.321,-5.035 -2.328,-6.196 -1.642,-0.949 -3.596,-1.003 -5.36,0.058 -1.788,1.075 -0.65,1.267 -2.264,0.746 -0.451,-0.145 -0.647,-0.183 -1.202,-0.193 -0.367,-0.007 -1.06,0.052 -1.387,-0.008 -0.755,-0.139 -1.957,-1.813 -5.397,-1.185 -2.449,0.447 -5.155,2.919 -5.155,5.848z"/>
   <path class="fil0" d="M45.535 11.097l0 33.478c0,0.867 0.302,2.015 1.085,2.015l28.828 0c1.457,0 1.101,-1.395 1.282,-2.748 0.392,-2.917 -0.516,-7.816 -1.281,-10.582 -0.302,-1.091 -0.652,-1.939 -1.027,-3.004 -0.716,-2.032 -2.306,-4.764 -3.532,-6.542 -0.303,-0.439 -0.492,-0.873 -0.867,-1.148 -0.462,0.123 -1.741,1.141 -2.015,1.55 1.549,2.926 2.197,2.791 4.03,7.439 1.805,4.577 2.015,7.467 2.015,12.4l-25.729 0 0 -31.773c1.836,0 4.562,1.204 6.045,1.549 0.076,-0.915 0.691,-1.469 0.775,-2.479 -1.47,-0.706 -6.235,-2.015 -8.369,-2.015 -0.821,0 -1.24,0.998 -1.24,1.86z"/>
   <path class="fil0" d="M62.584 75.108c0,0.92 0.683,1.488 1.24,1.86 -0.116,0.24 -0.25,2.015 -2.015,2.015 -2.285,0 -1.531,-2.72 -2.273,-3.462 -0.825,-0.825 -3.462,0.158 -3.462,-2.428 0,-1.267 1.11,-1.649 2.015,-1.86 1.562,2.333 2.619,0.637 5.58,-0.93l1.048 1.121c-0.2,0.317 -2.133,3.498 -2.133,3.684zm-0.338 6.51l-0.8 0c-1.81,-0.157 -3.553,-1.389 -4.132,-3.875 -0.677,-0.158 -1.029,-0.23 -1.604,-0.566 -0.348,-0.204 -0.878,-0.597 -1.125,-0.89 -2.647,-3.138 -0.485,-7.689 3.504,-7.689 1.471,0 1.045,0.23 1.86,0.775 0.903,-0.478 1.731,-1.071 2.635,-1.549 0,-1.576 0.414,-6.149 1.015,-7.664l0.932 -1.858c0.472,-0.775 0.711,-1.012 1.344,-1.601 2.142,-1.992 4.356,-2.362 7.248,-2.362 7.251,0 11.292,8.141 7.286,13.796 -0.897,1.267 -1.734,2.002 -3.105,2.784 -1.307,0.747 -2.845,0.95 -4.789,1.101 -1.663,0.129 -3.501,0.453 -5.282,0.453 -0.546,0.816 -1.079,1.746 -1.549,2.635 0.412,0.616 0.774,0.606 0.774,1.705 0,2.913 -2.039,4.618 -4.212,4.805zm10.102 -24.644c6.48,0 8.557,6.03 5.695,9.88 -1.779,2.394 -4.661,2.549 -7.556,2.673 -3.162,0.136 -3.23,0.779 -4.227,-0.265 -1.262,-1.321 -1.19,-0.539 -0.776,-3.808 0.391,-3.08 0.044,-5.252 2.898,-7.331 0.954,-0.695 2.408,-1.149 3.966,-1.149z"/>
   <path class="fil0" d="M65.529 19.776c-0.299,0 -1.018,-0.347 -1.24,-0.465 0.08,-0.97 0.47,-2.015 1.395,-2.015 0.862,0 1.112,0.689 1.704,1.085 -0.317,0.475 -1.11,1.395 -1.859,1.395zm-5.735 -5.58c0.547,0.128 1.4,0.111 1.809,0.361 0.92,0.561 0.876,1.549 0.671,2.429 -3.17,0.759 -2.48,-2.244 -2.48,-2.79zm11.779 -4.029c0,-0.331 1.884,-2.355 3.565,0.155 -1.601,2.391 -3.565,0.69 -3.565,-0.155zm-3.1 -1.395c-1.081,-0.724 -0.93,-0.583 -0.93,-2.48 1.146,0 1.178,-0.258 1.861,0.147 0.47,0.278 0.527,0.625 0.774,1.093 -0.574,0.384 -1.104,0.838 -1.705,1.24zm-3.719 -1.705c0,1.674 0.7,2.892 1.704,3.565 -0.515,0.77 -1.275,1.453 -2.169,2.789 -1.032,-0.69 -1.319,-1.859 -4.495,-1.859 -0.984,0 -1.986,0.126 -2.329,0.77 -0.939,1.762 -0.926,7.07 3.569,7.444 -0.42,1.802 -1.065,3.662 -1.09,5.731 -0.026,2.136 -0.774,1.709 2.64,1.709 0,-3.236 0.594,-4.295 0.62,-5.425 4.907,2.355 7.129,-2.981 7.129,-3.255 0,-0.782 -0.905,-1.735 -1.345,-2.22 -0.576,-0.635 -1.35,-1.427 -2.22,-1.5 0.104,-0.386 1.893,-2.746 2.635,-2.944 0.415,1.552 4.153,3.842 7.016,0.971 3.188,-3.197 1.051,-3.449 -0.196,-5.311 1.176,-0.564 3.962,-1.085 5.735,-1.085l0 -2.635c-5.677,0 -7.821,1.908 -9.61,2.325 -0.767,-3.292 -5.799,-2.889 -6.82,-2.016 -0.397,0.34 -0.495,0.723 -0.581,1.279 -0.092,0.593 -0.193,1.117 -0.193,1.667z"/>
   <path class="fil0" d="M9.732 48.14c0.886,-0.02 1.634,-0.31 2.634,-0.31 0,-1.015 -0.31,-1.892 -0.31,-3.72l28.364 0 0 29.603c-0.581,-0.135 -1.371,-0.173 -1.907,-0.263l-3.729 -0.765c-0.663,-0.181 -1.118,-0.465 -1.804,-0.522 -0.043,0.516 -0.58,2.074 -0.775,2.48 1.107,0.531 4.071,1.203 5.571,1.405 0.88,0.118 3.872,0.58 4.581,0.233 0.41,-0.202 0.698,-0.623 0.698,-1.173l0 -32.393c0,-1.106 -0.901,-1.395 -2.015,-1.395l-29.914 0c-1.596,0 -2.028,0.92 -1.772,2.543 0.118,0.746 0.023,1.444 0.132,2.197 0.082,0.57 0.235,1.599 0.246,2.08z"/>
   <path class="fil0" d="M34.995 9.857c0,1.106 0.442,1.614 0.465,2.635l4.96 -0.775 0 24.488 -27.744 0c0.491,-2.107 1.11,-3.582 1.395,-4.805 -0.846,-0.07 -1.633,-0.704 -2.48,-0.774 -0.483,0.913 -1.124,3.11 -1.357,4.222 -0.257,1.235 -0.788,2.625 -0.254,3.431 0.168,0.254 0.503,0.561 0.837,0.561l30.998 0c0.75,0 1.24,-0.49 1.24,-1.24l0 -27.278c0,-1.304 -1.113,-1.24 -1.86,-1.24 -1.123,0 -2.261,0.114 -3.147,0.263l-3.053 0.512z"/>
   <path class="fil0" d="M45.535 51.239l0 22.939c0,3.556 3.317,1.395 5.579,1.395 0,-1.107 -0.442,-1.614 -0.465,-2.635 -0.934,0 -1.391,0.31 -2.325,0.31l0 -21.389 24.334 0 -0.178 0.925c0.539,0.048 2.096,0.585 2.503,0.78 0.241,-0.502 1.677,-4.339 -0.155,-4.339l-28.208 0c-0.783,0 -1.085,1.147 -1.085,2.014z"/>
   <path class="fil0" d="M21.821 61.934c-0.849,-0.227 -2.057,-2.325 -6.045,-2.325l0 2.635c1.514,0 2.749,0.618 3.658,1.301 2.144,1.612 1.612,4.298 1.612,7.688l2.635 0c0,-2.937 -0.457,-7.119 1.057,-9.017 0.28,-0.352 0.738,-0.779 1.18,-0.99 1.713,-0.814 1.638,1.122 1.638,-3.012 -3.048,0 -4.56,1.499 -5.735,3.72z"/>
   <path class="fil0" d="M16.086 18.071c1.986,0 3.904,-0.361 5.115,-2.17 -0.732,-0.49 -1.258,-1.043 -2.015,-1.55 -0.871,0.584 -1.114,1.085 -2.635,1.085 -1.484,0 -2.79,-1.438 -2.79,-2.944 -2.362,0 -3.35,-0.62 -2.371,1.906 0.722,1.865 2.692,3.673 4.696,3.673z"/>
   <path class="fil0" d="M67.698 63.639l0 0.465 2.635 0c0.238,-2.856 2.949,-1.576 3.255,-1.55 0.505,-0.954 1.192,-1.753 1.24,-2.325 -1.29,-0.301 -0.617,-0.62 -2.945,-0.62 -2.37,0 -4.185,2.24 -4.185,4.03z"/>
   <path class="fil0" d="M52.044 37.91c0,2.783 -0.458,2.325 2.325,2.325 0.689,0 0.465,-0.723 0.465,-2.325 0,-0.689 -0.723,-0.465 -2.325,-0.465 -0.357,0 -0.465,0.108 -0.465,0.465z"/>
   <path class="fil0" d="M52.044 27.526c0,2.782 -0.458,2.325 2.325,2.325 0.689,0 0.465,-0.724 0.465,-2.325 0,-0.689 -0.723,-0.465 -2.325,-0.465 -0.357,0 -0.465,0.108 -0.465,0.465z"/>
   <path class="fil0" d="M62.429 35.895c0,0.357 0.108,0.465 0.465,0.465l2.17 0 0 -2.79 -2.635 0 0 2.325z"/>
   <path class="fil0" d="M68.938 35.895c0,0.357 0.108,0.465 0.465,0.465l2.17 0 0 -2.79 -2.635 0 0 2.325z"/>
   <polygon class="fil0" points="62.429,31.09 65.064,31.09 65.064,28.456 62.429,28.456 "/>
   <polygon class="fil0" points="57.314,32.33 59.949,32.33 59.949,29.696 57.314,29.696 "/>
   <polygon class="fil0" points="50.804,34.965 53.439,34.965 53.439,32.33 50.804,32.33 "/>
   <polygon class="fil0" points="62.429,41.475 65.064,41.475 65.064,38.84 62.429,38.84 "/>
   <polygon class="fil0" points="57.314,37.6 59.949,37.6 59.949,34.965 57.314,34.965 "/>
  </g>
  <rect class="fil1" width="86.137" height="83.88"/>
 </g>
</svg>
