<?xml version="1.0" encoding="UTF-8"?>
<!DOCTYPE svg PUBLIC "-//W3C//DTD SVG 1.1//EN" "http://www.w3.org/Graphics/SVG/1.1/DTD/svg11.dtd">
<!-- Creator: CorelDRAW 2017 -->
<svg xmlns="http://www.w3.org/2000/svg" xml:space="preserve" width="100px" height="97px" version="1.1" style="shape-rendering:geometricPrecision; text-rendering:geometricPrecision; image-rendering:optimizeQuality; fill-rule:evenodd; clip-rule:evenodd"
viewBox="0 0 17.341 16.886"
 xmlns:xlink="http://www.w3.org/1999/xlink">
 <defs>
  <style type="text/css">
   <![CDATA[
    .fil2 {fill:none}
    .fil0 {fill:#E31E24}
    .fil1 {fill:#E31E24}
   ]]>
  </style>
 </defs>
 <g id="Слой_x0020_1">
  <metadata id="CorelCorpID_0Corel-Layer"/>
  <g id="_2275108579504">
   <g>
    <path class="fil0" d="M1.33 10.89l1.958 0 0 4.893 -1.958 0 0 -4.893zm5.138 -0.673c0,0.147 0.15,0.184 0.273,0.186 1.062,0.02 2.231,-0.028 3.307,-0.004 0.705,0.016 0.725,0.784 0.238,0.945 -0.537,0.177 -1.616,-0.208 -1.616,0.28 0,0.52 1.147,0.019 1.547,0.379 0.252,0.227 0.193,0.671 -0.153,0.801 -0.191,0.072 -0.984,0.045 -1.242,0.042 -0.235,-0.002 -0.396,0.017 -0.396,0.246 0,0.229 0.161,0.247 0.396,0.245 0.37,-0.003 0.936,-0.059 1.151,0.134 0.251,0.227 0.193,0.671 -0.153,0.801 -0.165,0.062 -0.388,0.043 -0.599,0.043 -0.535,0 -1.04,-0.097 -1.04,0.245 0,0.488 0.981,0.085 1.437,0.306 0.433,0.21 0.346,0.917 -0.305,0.917l-3.946 0c-0.137,0 -0.932,-0.255 -1.174,-0.324 -0.115,-0.032 -0.318,-0.096 -0.416,-0.104l0 -4.006c0.353,-0.03 0.77,-0.444 0.944,-0.677 0.301,-0.403 0.323,-0.606 0.476,-1.145 0.154,-0.54 0.603,-2.015 0.721,-2.521 1.056,0.246 0.748,1.507 0.651,2.241 -0.042,0.317 -0.101,0.645 -0.101,0.97zm-2.691 0.612c0,-0.248 0.001,-0.429 -0.245,-0.429l-2.446 0c-0.148,0 -0.245,0.097 -0.245,0.245l0 5.383c0,0.148 0.097,0.244 0.245,0.244l2.446 0c0.235,0 0.245,-0.162 0.245,-0.397 0.292,0.068 1.257,0.397 1.437,0.397l4.282 0c0.495,0 1.09,-0.634 0.814,-1.333 -0.045,-0.114 -0.115,-0.191 -0.141,-0.287 0.847,-0.568 0.267,-1.384 0.245,-1.468 0.846,-0.568 0.267,-1.384 0.244,-1.468 0.659,-0.442 0.584,-1.324 -0.031,-1.682 -0.305,-0.177 -0.667,-0.123 -1.131,-0.123 -0.836,0 -1.672,0 -2.508,0 0.055,-0.113 0.214,-1.598 0.214,-1.896 0,-0.401 -0.196,-0.83 -0.39,-1.048 -0.283,-0.319 -0.653,-0.481 -1.139,-0.481 -0.213,0 -0.379,0.815 -0.459,1.101l-0.519 1.804c-0.163,0.582 -0.208,0.877 -0.682,1.276 -0.071,0.06 -0.162,0.112 -0.236,0.162z"/>
    <path class="fil0" d="M5.734 5.752c0,0.201 -0.046,0.489 0.245,0.489 0.315,0 0.223,-0.338 0.307,-0.946 0.102,-0.734 0.325,-1.238 0.662,-1.847 0.387,-0.699 1.239,-1.447 1.957,-1.805 0.432,-0.215 0.917,-0.385 1.403,-0.462 0.557,-0.087 1.158,-0.081 1.723,0.018 1.04,0.182 2.127,0.822 2.778,1.595 0.321,0.382 0.518,0.697 0.743,1.153 0.131,0.266 0.234,0.607 0.318,0.936 0.172,0.679 0.179,1.46 0.025,2.129 -0.194,0.839 -0.59,1.697 -1.192,2.295 -0.619,0.615 -1.242,1.096 -2.107,1.349 -0.454,0.133 -0.776,0.108 -0.776,0.387 0,0.508 0.996,0.097 1.163,0.03 0.284,-0.113 0.518,-0.203 0.785,-0.346 0.71,-0.382 0.752,-0.547 1.124,-0.834 0.231,-0.177 0.143,-0.15 0.284,-0.296 0.208,-0.214 0.189,-0.209 0.371,-0.455 0.428,-0.58 0.953,-1.676 0.953,-2.442l0 -1.147c-0.021,-0.7 -0.127,-1.31 -0.572,-2.105 -0.365,-0.653 -0.394,-0.628 -0.765,-1.069 -0.185,-0.22 -0.403,-0.412 -0.628,-0.596 -0.123,-0.101 -0.219,-0.168 -0.354,-0.258 -0.748,-0.497 -1.769,-0.911 -2.758,-0.911 -0.995,0 -1.74,0.071 -2.61,0.509 -0.157,0.08 -0.282,0.141 -0.42,0.223 -0.128,0.077 -0.274,0.162 -0.392,0.251 -0.845,0.635 -1.277,1.143 -1.757,2.095 -0.24,0.475 -0.51,1.363 -0.51,2.06z"/>
    <path class="fil0" d="M4.266 3.55l0 0.245c-0.201,0 -0.489,-0.047 -0.489,0.244 0,0.291 0.288,0.245 0.489,0.245 0,0.201 -0.046,0.489 0.245,0.489 0.291,0 0.245,-0.288 0.245,-0.489 0.201,0 0.489,0.046 0.489,-0.245 0,-0.291 -0.288,-0.244 -0.489,-0.244 0,-0.202 0.046,-0.49 -0.245,-0.49 -0.148,0 -0.245,0.097 -0.245,0.245z"/>
    <path class="fil0" d="M13.319 12.602l0 0.245c-0.201,0 -0.489,-0.046 -0.489,0.245 0,0.291 0.288,0.244 0.489,0.244 0,0.202 -0.046,0.49 0.245,0.49 0.29,0 0.244,-0.288 0.244,-0.49 0.201,0 0.49,0.047 0.49,-0.244 0,-0.291 -0.289,-0.245 -0.49,-0.245 0,-0.201 0.046,-0.489 -0.244,-0.489 -0.148,0 -0.245,0.096 -0.245,0.244z"/>
   </g>
   <path class="fil1" d="M10.012 3.19c0.609,0 1.219,0 1.828,0 0.157,0 0.299,0.005 0.447,0.013l0.198 0.029c0.062,0.017 0.114,0.037 0.162,0.064 0.588,0.331 0.666,1.371 0.207,1.939 -0.339,0.419 -0.78,0.362 -1.461,0.362l-1.381 0 0 -2.407zm-0.756 6.019l0.749 0 0 -1.93 2.687 -0.001 0 -0.697 -2.679 0 -0.003 -0.285c0.409,0 0.817,0 1.225,0 0.347,0 0.699,0.008 1.044,-0.022 0.393,-0.035 0.81,-0.161 1.09,-0.434 0.161,-0.157 0.316,-0.36 0.424,-0.559l0.104 -0.227c0,-0.002 0.003,-0.008 0.003,-0.01 0.094,-0.261 0.111,-0.558 0.083,-0.829 -0.014,-0.135 -0.041,-0.26 -0.075,-0.385l-0.051 -0.177c-0.004,-0.013 -0.006,-0.019 -0.01,-0.031 -0.004,-0.013 0,-0.002 -0.005,-0.015l-0.047 -0.119c-0.094,-0.209 -0.204,-0.385 -0.373,-0.54 -0.302,-0.274 -0.646,-0.413 -1.062,-0.456 -0.047,-0.005 -0.269,-0.01 -0.285,-0.017l-2.819 0 -0.003 3.124c-0.086,0 -0.356,-0.011 -0.419,0.004l0.002 0.694 0.049 0.004c0.018,0 0.037,0 0.055,0l0.316 0 -0.002 0.26c-0.004,0.017 -0.009,0.016 -0.021,0.02 -0.02,0.006 -0.336,-0.004 -0.401,0.004l0 0.692c0.082,0.008 0.35,-0.014 0.398,0.006 0.033,0.016 0.028,0.055 0.028,0.098l-0.002 1.828z"/>
  </g>
  <rect class="fil2" width="17.341" height="16.886"/>
 </g>
</svg>
