<?xml version="1.0" encoding="UTF-8"?>
<!DOCTYPE svg PUBLIC "-//W3C//DTD SVG 1.1//EN" "http://www.w3.org/Graphics/SVG/1.1/DTD/svg11.dtd">
<!-- Creator: CorelDRAW 2017 -->
<svg xmlns="http://www.w3.org/2000/svg" xml:space="preserve" width="128px" height="105px" version="1.1" style="shape-rendering:geometricPrecision; text-rendering:geometricPrecision; image-rendering:optimizeQuality; fill-rule:evenodd; clip-rule:evenodd"
viewBox="0 0 28.08 23.07"
 xmlns:xlink="http://www.w3.org/1999/xlink">
 <defs>
  <style type="text/css">
   <![CDATA[
    .fil0 {fill:#2B2A29;fill-rule:nonzero}
    .fil2 {fill:#262F72;fill-rule:nonzero}
    .fil1 {fill:#E22B25;fill-rule:nonzero}
    .fil3 {fill:#FEFEFE;fill-rule:nonzero}
   ]]>
  </style>
 </defs>
 <g id="Слой_x0020_1">
  <metadata id="CorelCorpID_0Corel-Layer"/>
  <polygon class="fil0" points="0.32,9.08 28.08,9.08 28.08,14.21 0,14.21 0,9.08 "/>
  <g id="_2923202761776">
   <path class="fil0" d="M25.3 13.95c-0.56,2.63 -2.02,4.93 -4.04,6.56 -1.98,1.6 -4.5,2.56 -7.24,2.56 -2.75,0 -5.27,-0.96 -7.25,-2.56 -2.02,-1.63 -3.48,-3.93 -4.04,-6.56l-0.06 -0.29 4.4 0 0.05 0.16c0.49,1.46 1.43,2.72 2.65,3.61 1.19,0.86 2.66,1.36 4.25,1.36 1.58,0 3.05,-0.5 4.24,-1.36 1.22,-0.89 2.16,-2.15 2.65,-3.61l0.05 -0.16 4.4 0 -0.06 0.29z"/>
   <path class="fil0" d="M14.02 0c2.78,0 5.34,0.99 7.33,2.64 2.03,1.67 3.48,4.03 3.99,6.71l0.06 0.29 -4.37 0 -0.05 -0.18c-0.45,-1.51 -1.39,-2.82 -2.63,-3.75 -1.21,-0.9 -2.71,-1.44 -4.33,-1.44 -1.63,0 -3.13,0.54 -4.34,1.44 -1.24,0.93 -2.17,2.24 -2.63,3.75l-0.05 0.18 -4.37 0 0.06 -0.29c0.51,-2.68 1.96,-5.04 3.99,-6.71 1.99,-1.65 4.55,-2.64 7.34,-2.64z"/>
  </g>
  <path class="fil1" d="M20.96 20.14c1.86,-1.51 3.23,-3.6 3.8,-6.01l-3.46 0c-0.53,1.49 -1.5,2.77 -2.76,3.68 -1.28,0.92 -2.84,1.46 -4.52,1.46 -1.69,0 -3.25,-0.54 -4.53,-1.46 -1.26,-0.91 -2.23,-2.19 -2.76,-3.68l-3.46 0c0.58,2.41 1.94,4.5 3.8,6.01 1.9,1.53 4.31,2.45 6.95,2.45 2.63,0 5.04,-0.92 6.94,-2.45z"/>
  <path class="fil1" d="M21.05 3c-1.91,-1.57 -4.36,-2.52 -7.03,-2.52 -2.68,0 -5.13,0.95 -7.04,2.52 -1.87,1.55 -3.23,3.7 -3.76,6.16l3.43 0c0.5,-1.55 1.47,-2.88 2.74,-3.83 1.29,-0.96 2.89,-1.53 4.63,-1.53 1.73,0 3.33,0.57 4.62,1.53 1.27,0.95 2.24,2.28 2.74,3.83l3.44 0c-0.54,-2.46 -1.9,-4.61 -3.77,-6.16z"/>
  <polygon class="fil2" points="27.44,9.72 0.64,9.72 0.64,13.58 27.44,13.58 "/>
  <path class="fil3" d="M3.7 10.42l0.64 0c0.26,0 0.46,0.05 0.62,0.17 0.15,0.11 0.23,0.27 0.23,0.47 0,0.18 -0.08,0.32 -0.24,0.41 0.15,0.05 0.27,0.14 0.35,0.25 0.09,0.11 0.13,0.24 0.13,0.38 0,0.22 -0.08,0.4 -0.25,0.54 -0.16,0.14 -0.37,0.21 -0.61,0.21l-0.87 0 -0.02 -0.02 0 -2.4 0.02 -0.01zm0.41 0.4l0 0.54 0.23 0c0.13,0 0.22,-0.03 0.28,-0.07 0.05,-0.05 0.08,-0.12 0.08,-0.21 0,-0.17 -0.12,-0.26 -0.36,-0.26l-0.23 0zm0 0.94l0 0.68 0.44 0c0.12,0 0.22,-0.03 0.29,-0.09 0.07,-0.06 0.1,-0.14 0.1,-0.25 0,-0.1 -0.03,-0.19 -0.1,-0.25 -0.07,-0.06 -0.17,-0.09 -0.29,-0.09l-0.44 0zm1.73 -1.34l0.4 0 0.02 0.01 0 2.01 1.11 0 0.02 0.02 0 0.38 -0.02 0.01 -1.53 0 -0.01 -0.01 0 -2.41 0.01 -0.01zm2.98 -0.05c0.37,0 0.7,0.12 0.97,0.37 0.26,0.24 0.4,0.54 0.4,0.89 0,0.36 -0.14,0.65 -0.4,0.9 -0.27,0.25 -0.6,0.37 -0.97,0.37 -0.38,0 -0.71,-0.12 -0.97,-0.37 -0.27,-0.25 -0.4,-0.54 -0.4,-0.9 0,-0.35 0.13,-0.65 0.4,-0.89 0.26,-0.25 0.59,-0.37 0.97,-0.37zm0.62 0.66c-0.17,-0.16 -0.38,-0.24 -0.62,-0.24 -0.25,0 -0.46,0.08 -0.63,0.24 -0.17,0.17 -0.25,0.37 -0.25,0.6 0,0.24 0.08,0.44 0.25,0.6 0.17,0.17 0.38,0.25 0.63,0.25 0.24,0 0.45,-0.08 0.62,-0.25 0.17,-0.16 0.26,-0.36 0.26,-0.6 0,-0.23 -0.09,-0.43 -0.26,-0.6zm2.46 -0.66c0.38,0 0.7,0.12 0.97,0.37 0.26,0.24 0.4,0.54 0.4,0.89 0,0.36 -0.14,0.65 -0.4,0.9 -0.27,0.25 -0.59,0.37 -0.97,0.37 -0.38,0 -0.71,-0.12 -0.97,-0.37 -0.27,-0.25 -0.4,-0.54 -0.4,-0.9 0,-0.35 0.13,-0.65 0.4,-0.89 0.26,-0.25 0.59,-0.37 0.97,-0.37zm0.62 0.66c-0.17,-0.16 -0.38,-0.24 -0.62,-0.24 -0.25,0 -0.45,0.08 -0.63,0.24 -0.17,0.17 -0.25,0.37 -0.25,0.6 0,0.24 0.08,0.44 0.25,0.6 0.18,0.17 0.38,0.25 0.63,0.25 0.24,0 0.45,-0.08 0.62,-0.25 0.17,-0.16 0.26,-0.36 0.26,-0.6 0,-0.23 -0.09,-0.43 -0.26,-0.6zm1.2 -0.61l0.39 0 0.03 0.01 0.86 0.98 0.86 -0.98 0.03 -0.01 0.39 0 0.02 0.01 0 2.4 -0.02 0.02 -0.4 0 -0.02 -0.02 0 -1.8 -0.84 0.96 -0.04 0 -0.84 -0.96 0 1.8 -0.02 0.02 -0.4 0 -0.01 -0.02 0 -2.4 0.01 -0.01zm5.34 0.6l-0.01 0.02c-0.23,-0.17 -0.53,-0.25 -0.91,-0.25 -0.27,0 -0.49,0.08 -0.66,0.24 -0.17,0.16 -0.26,0.36 -0.26,0.6 0,0.24 0.09,0.44 0.26,0.61 0.18,0.16 0.4,0.24 0.68,0.24 0.19,0 0.35,-0.03 0.49,-0.09l0 -0.54 -0.45 0 -0.02 -0.02 0 -0.36 0.02 -0.02 0.87 0 0.02 0.02 0 1.18c-0.27,0.17 -0.58,0.25 -0.93,0.25 -0.4,0 -0.74,-0.12 -1.01,-0.37 -0.28,-0.24 -0.42,-0.54 -0.42,-0.9 0,-0.35 0.14,-0.65 0.41,-0.89 0.27,-0.25 0.6,-0.37 1,-0.37 0.4,0 0.71,0.06 0.92,0.19l0 0.46zm0.16 -0.6l0.46 0 0.03 0.01 0.64 0.82 0.64 -0.82 0.03 -0.01 0.46 0 0.02 0.01 -0.94 1.22 0 1.18 -0.01 0.02 -0.4 0 -0.01 -0.02 0 -1.18 -0.94 -1.22 0.02 -0.01zm2.6 0l0.38 0 0.04 0.01 0.86 0.98 0.85 -0.98 0.04 -0.01 0.39 0 0.01 0.01 0 2.4 -0.01 0.02 -0.4 0 -0.02 -0.02 0 -1.8 -0.84 0.96 -0.04 0 -0.85 -0.96 0 1.8 -0.02 0.02 -0.39 0 -0.02 -0.02 0 -2.4 0.02 -0.01z"/>
 </g>
</svg>
