<?xml version="1.0" encoding="UTF-8"?>
<!DOCTYPE svg PUBLIC "-//W3C//DTD SVG 1.1//EN" "http://www.w3.org/Graphics/SVG/1.1/DTD/svg11.dtd">
<!-- Creator: CorelDRAW 2017 -->
<svg xmlns="http://www.w3.org/2000/svg" xml:space="preserve" width="128px" height="105px" version="1.1" style="shape-rendering:geometricPrecision; text-rendering:geometricPrecision; image-rendering:optimizeQuality; fill-rule:evenodd; clip-rule:evenodd"
viewBox="0 0 58.54 48.1"
 xmlns:xlink="http://www.w3.org/1999/xlink">
 <defs>
  <style type="text/css">
   <![CDATA[
    .fil0 {fill:#FEFEFE;fill-rule:nonzero}
    .fil1 {fill:#FEFEFE;fill-rule:nonzero}
   ]]>
  </style>
 </defs>
 <g id="Слой_x0020_1">
  <metadata id="CorelCorpID_0Corel-Layer"/>
  <g id="_2923084507408">
   <path class="fil0" d="M29.22 0c5.81,0 11.14,2.06 15.3,5.49 4.23,3.5 7.25,8.41 8.32,14.01l0.11 0.59 -9.11 0 -0.1 -0.36c-0.94,-3.16 -2.89,-5.9 -5.48,-7.82 -2.52,-1.89 -5.65,-3 -9.04,-3 -3.39,0 -6.52,1.11 -9.04,3 -2.58,1.92 -4.53,4.66 -5.47,7.82l-0.11 0.36 -9.11 0 0.12 -0.59c1.07,-5.6 4.08,-10.51 8.31,-14.01 4.16,-3.43 9.49,-5.49 15.3,-5.49zm14.67 6.26c-3.98,-3.29 -9.09,-5.26 -14.67,-5.26 -5.57,0 -10.68,1.97 -14.67,5.26 -3.9,3.22 -6.72,7.71 -7.85,12.84l7.17 0c1.04,-3.23 3.06,-6.01 5.72,-7.99 2.69,-2.01 6.02,-3.19 9.63,-3.19 3.61,0 6.95,1.18 9.64,3.19 2.65,1.98 4.68,4.76 5.72,7.99l7.16 0c-1.12,-5.13 -3.95,-9.62 -7.85,-12.84zm8.85 22.82c-1.16,5.48 -4.2,10.28 -8.41,13.68 -4.13,3.34 -9.39,5.34 -15.11,5.34 -5.72,0 -10.98,-2 -15.11,-5.34 -4.2,-3.4 -7.24,-8.2 -8.41,-13.68l-0.13 -0.6 9.17 0 0.11 0.34c1.01,3.05 2.97,5.67 5.52,7.51 2.49,1.8 5.55,2.86 8.85,2.86 3.31,0 6.36,-1.06 8.85,-2.86 2.56,-1.84 4.51,-4.46 5.52,-7.51l0.12 -0.34 9.16 0 -0.13 0.6zm-9.03 12.9c3.88,-3.13 6.72,-7.5 7.92,-12.51l-7.21 0c-1.11,3.11 -3.14,5.77 -5.77,7.67 -2.65,1.91 -5.91,3.04 -9.43,3.04 -3.52,0 -6.77,-1.13 -9.43,-3.04 -2.62,-1.9 -4.65,-4.56 -5.76,-7.67l-7.22 0c1.21,5.01 4.05,9.38 7.93,12.51 3.95,3.21 8.99,5.12 14.48,5.12 5.49,0 10.53,-1.91 14.49,-5.12z"/>
   <path class="fil0" d="M0.66 18.93l57.88 0 0 10.71 -58.54 0 0 -10.71 0.66 0zm56.56 1.33l-55.89 0 0 8.05 55.89 0 0 -8.05z"/>
   <path class="fil1" d="M7.72 21.72l1.34 0c0.53,0 0.95,0.12 1.28,0.36 0.32,0.24 0.48,0.56 0.48,0.97 0,0.38 -0.16,0.67 -0.49,0.86 0.31,0.12 0.56,0.29 0.73,0.52 0.17,0.24 0.26,0.5 0.26,0.8 0,0.46 -0.17,0.84 -0.51,1.13 -0.34,0.29 -0.77,0.43 -1.29,0.43l-1.8 0 -0.04 -0.04 0 -4.99 0.04 -0.04zm0.86 0.85l0 1.11 0.48 0c0.25,0 0.44,-0.05 0.56,-0.15 0.12,-0.09 0.18,-0.24 0.18,-0.43 0,-0.36 -0.25,-0.53 -0.74,-0.53l-0.48 0zm0 1.95l0 1.42 0.91 0c0.26,0 0.46,-0.06 0.6,-0.18 0.14,-0.13 0.22,-0.3 0.22,-0.53 0,-0.22 -0.08,-0.39 -0.22,-0.52 -0.15,-0.12 -0.35,-0.19 -0.6,-0.19l-0.91 0zm3.6 -2.8l0.84 0 0.03 0.03 0 4.19 2.32 0 0.03 0.04 0 0.78 -0.03 0.03 -3.19 0 -0.03 -0.03 0 -5.01 0.03 -0.03zm6.2 -0.11c0.79,0 1.46,0.26 2.02,0.77 0.56,0.52 0.84,1.14 0.84,1.88 0,0.73 -0.28,1.35 -0.84,1.87 -0.56,0.51 -1.23,0.77 -2.02,0.77 -0.79,0 -1.46,-0.26 -2.02,-0.77 -0.56,-0.52 -0.83,-1.14 -0.83,-1.87 0,-0.74 0.27,-1.36 0.83,-1.88 0.56,-0.51 1.23,-0.77 2.02,-0.77zm1.3 1.4c-0.35,-0.34 -0.79,-0.51 -1.3,-0.51 -0.51,0 -0.94,0.17 -1.3,0.51 -0.36,0.34 -0.53,0.75 -0.53,1.25 0,0.49 0.17,0.9 0.53,1.24 0.36,0.34 0.79,0.52 1.3,0.52 0.51,0 0.95,-0.18 1.3,-0.52 0.36,-0.34 0.54,-0.75 0.54,-1.24 0,-0.5 -0.18,-0.91 -0.54,-1.25zm5.13 -1.4c0.79,0 1.46,0.26 2.02,0.77 0.56,0.52 0.84,1.14 0.84,1.88 0,0.73 -0.28,1.35 -0.84,1.87 -0.56,0.51 -1.23,0.77 -2.02,0.77 -0.79,0 -1.47,-0.26 -2.03,-0.77 -0.55,-0.52 -0.83,-1.14 -0.83,-1.87 0,-0.74 0.28,-1.36 0.83,-1.88 0.56,-0.51 1.24,-0.77 2.03,-0.77zm1.3 1.4c-0.36,-0.34 -0.79,-0.51 -1.3,-0.51 -0.51,0 -0.95,0.17 -1.3,0.51 -0.36,0.34 -0.54,0.75 -0.54,1.25 0,0.49 0.18,0.9 0.54,1.24 0.35,0.34 0.79,0.52 1.3,0.52 0.51,0 0.94,-0.18 1.3,-0.52 0.36,-0.34 0.54,-0.75 0.54,-1.24 0,-0.5 -0.18,-0.91 -0.54,-1.25zm2.51 -1.29l0.79 0 0.08 0.04 1.79 2.02 1.78 -2.02 0.08 -0.04 0.8 0 0.04 0.04 0 4.99 -0.04 0.04 -0.82 0 -0.04 -0.04 0 -3.75 -1.76 1.99 -0.08 0 -1.77 -1.99 0 3.75 -0.04 0.04 -0.81 0 -0.04 -0.04 0 -4.99 0.04 -0.04zm11.13 1.25l-0.04 0.04c-0.47,-0.34 -1.1,-0.51 -1.89,-0.51 -0.56,0 -1.02,0.16 -1.38,0.5 -0.36,0.34 -0.54,0.76 -0.54,1.26 0,0.5 0.19,0.92 0.55,1.25 0.37,0.34 0.84,0.51 1.41,0.51 0.39,0 0.73,-0.07 1.03,-0.19l0 -1.12 -0.95 0 -0.04 -0.03 0 -0.77 0.04 -0.04 1.82 0 0.04 0.04 0 2.47c-0.57,0.34 -1.22,0.52 -1.94,0.52 -0.83,0 -1.53,-0.26 -2.11,-0.77 -0.58,-0.5 -0.86,-1.13 -0.86,-1.87 0,-0.73 0.28,-1.36 0.84,-1.87 0.57,-0.52 1.27,-0.78 2.09,-0.78 0.83,0 1.47,0.14 1.93,0.41l0 0.95zm0.32 -1.25l0.97 0 0.06 0.04 1.33 1.7 1.33 -1.7 0.06 -0.04 0.96 0 0.04 0.04 -1.94 2.54 0 2.45 -0.04 0.04 -0.82 0 -0.04 -0.04 0 -2.45 -1.94 -2.54 0.03 -0.04zm5.43 0l0.79 0 0.08 0.04 1.79 2.02 1.78 -2.02 0.08 -0.04 0.8 0 0.04 0.04 0 4.99 -0.04 0.04 -0.82 0 -0.04 -0.04 0 -3.75 -1.76 1.99 -0.08 0 -1.77 -1.99 0 3.75 -0.04 0.04 -0.81 0 -0.04 -0.04 0 -4.99 0.04 -0.04z"/>
  </g>
 </g>
</svg>
